<svg xmlns="http://www.w3.org/2000/svg" xmlns:xlink="http://www.w3.org/1999/xlink" width="458" height="265" viewBox="0 0 458 265"><defs><style>.cls-1,.cls-3{fill:none;}.cls-2{fill:#81abff;}.cls-3{stroke:#81abff;stroke-miterlimit:10;stroke-width:2px;}.cls-4{fill:url(#linear-gradient);}.cls-5{fill:url(#linear-gradient-2);}.cls-6{fill:url(#linear-gradient-3);}.cls-7{fill:url(#linear-gradient-4);}.cls-8{fill:url(#linear-gradient-5);}.cls-9{fill:url(#linear-gradient-6);}.cls-10{fill:url(#linear-gradient-7);}.cls-11{fill:url(#linear-gradient-8);}.cls-12{fill:url(#linear-gradient-9);}.cls-13{fill:url(#linear-gradient-10);}.cls-14{fill:url(#linear-gradient-11);}.cls-15{fill:url(#linear-gradient-12);}.cls-16{fill:url(#linear-gradient-13);}.cls-17{fill:url(#linear-gradient-14);}.cls-18{fill:url(#linear-gradient-15);}.cls-19{fill:url(#linear-gradient-16);}.cls-20{fill:url(#linear-gradient-17);}.cls-21{fill:url(#linear-gradient-18);}.cls-22{fill:url(#linear-gradient-19);}.cls-23{fill:url(#linear-gradient-20);}.cls-24{fill:url(#linear-gradient-21);}.cls-25{fill:url(#linear-gradient-22);}.cls-26{fill:url(#linear-gradient-23);}.cls-27{fill:url(#linear-gradient-24);}.cls-28{fill:url(#linear-gradient-25);}.cls-29{fill:url(#linear-gradient-26);}.cls-30{fill:url(#linear-gradient-27);}.cls-31{fill:url(#linear-gradient-28);}</style><linearGradient id="linear-gradient" x1="8969.06" y1="368.66" x2="8660.58" y2="88.75" gradientTransform="matrix(1, 0, 0, -1, -8475.93, 264)" gradientUnits="userSpaceOnUse"><stop offset="0" stop-color="#4222d0"/><stop offset="1" stop-color="#070256"/></linearGradient><linearGradient id="linear-gradient-2" x1="8881.04" y1="196.6" x2="8594.8" y2="209.53" gradientTransform="matrix(1, 0, 0, -1, -8475.93, 409)" gradientUnits="userSpaceOnUse"><stop offset="0" stop-color="#e7eefe"/><stop offset="1" stop-color="#aac5fa"/></linearGradient><linearGradient id="linear-gradient-3" x1="8799.68" y1="49.22" x2="8615.2" y2="224.25" gradientTransform="matrix(0, -1, -1, 0, 367.5, 8844.43)" gradientUnits="userSpaceOnUse"><stop offset="0" stop-color="#fff"/><stop offset="1" stop-color="#d6ddf8"/></linearGradient><linearGradient id="linear-gradient-4" x1="8797.29" y1="285.94" x2="8629.56" y2="180.01" gradientTransform="matrix(-1, 0, 0, 1, 8947.93, 0)" gradientUnits="userSpaceOnUse"><stop offset="0" stop-color="#fff"/><stop offset="1" stop-color="#aac0fa"/></linearGradient><linearGradient id="linear-gradient-5" x1="8847.01" y1="216.62" x2="8509.75" y2="296.87" gradientTransform="matrix(-1, 0, 0, 1, 8947.93, 0)" xlink:href="#linear-gradient-2"/><linearGradient id="linear-gradient-6" x1="203.97" y1="122.41" x2="271.75" y2="210.66" gradientUnits="userSpaceOnUse"><stop offset="0" stop-color="#90c5ff"/><stop offset="1" stop-color="#0c4ae3"/></linearGradient><linearGradient id="linear-gradient-7" x1="187.97" y1="93.41" x2="255.75" y2="181.66" xlink:href="#linear-gradient-6"/><linearGradient id="linear-gradient-8" x1="195.63" y1="73.32" x2="363.1" y2="291.38" xlink:href="#linear-gradient-6"/><linearGradient id="linear-gradient-9" x1="86.93" y1="5.33" x2="260.61" y2="210.53" xlink:href="#linear-gradient-6"/><linearGradient id="linear-gradient-10" x1="3.29" y1="73.32" x2="298.47" y2="73.32" gradientTransform="translate(145.18 246.61) rotate(-90)" xlink:href="#linear-gradient-6"/><linearGradient id="linear-gradient-11" x1="-2736.94" y1="-79.49" x2="-2736.94" y2="503.97" gradientTransform="matrix(-1, 0, 0, 1, -2349.81, 0)" gradientUnits="userSpaceOnUse"><stop offset="0" stop-color="#ffcdcd"/><stop offset="1" stop-color="#ff8686"/></linearGradient><linearGradient id="linear-gradient-12" x1="-2716.96" y1="-79.49" x2="-2716.96" y2="503.97" xlink:href="#linear-gradient-11"/><linearGradient id="linear-gradient-13" x1="-2918.21" y1="244.49" x2="-2929.39" y2="255.38" gradientTransform="matrix(-1, 0, -0.04, 1, -2530.86, 0)" gradientUnits="userSpaceOnUse"><stop offset="0" stop-color="#3c1289"/><stop offset="1" stop-color="#1a0559"/></linearGradient><linearGradient id="linear-gradient-14" x1="-2729.64" y1="111.12" x2="-2729.64" y2="301.34" gradientTransform="matrix(-1, 0, 0, 1, -2349.81, 0)" gradientUnits="userSpaceOnUse"><stop offset="0" stop-color="#2675eb"/><stop offset="1" stop-color="#0744b3"/></linearGradient><linearGradient id="linear-gradient-15" x1="10140.15" y1="244.49" x2="10128.97" y2="255.38" gradientTransform="matrix(1, 0, -0.21, 1, -9727.77, 0)" xlink:href="#linear-gradient-13"/><linearGradient id="linear-gradient-16" x1="357.05" y1="208.32" x2="375.49" y2="76.71" gradientTransform="matrix(1, 0, 0, 1, 0, 0)" xlink:href="#linear-gradient-11"/><linearGradient id="linear-gradient-17" x1="-4339.79" y1="-2887.23" x2="-4335.6" y2="-2766.2" gradientTransform="matrix(-0.9, -0.43, -0.43, 0.9, -4779.15, 840.02)" xlink:href="#linear-gradient-13"/><linearGradient id="linear-gradient-18" x1="-2728.03" y1="182.95" x2="-2735.32" y2="62.78" xlink:href="#linear-gradient-11"/><linearGradient id="linear-gradient-19" x1="375.58" y1="93.9" x2="384.03" y2="338.27" gradientTransform="matrix(1, 0, 0, 1, 0, 0)" xlink:href="#linear-gradient-13"/><linearGradient id="linear-gradient-20" x1="350.25" y1="207.37" x2="368.69" y2="75.76" gradientTransform="matrix(1, 0, 0, 1, 0, 0)" xlink:href="#linear-gradient-11"/><linearGradient id="linear-gradient-21" x1="7128.43" y1="80.56" x2="7153.37" y2="84.43" gradientTransform="matrix(1, 0.02, -0.02, 1, -6761.92, -85.35)" xlink:href="#linear-gradient-11"/><linearGradient id="linear-gradient-22" x1="7138.14" y1="74.86" x2="7151.76" y2="77.1" gradientTransform="matrix(1, 0.02, -0.02, 1, -6761.92, -85.35)" xlink:href="#linear-gradient-11"/><linearGradient id="linear-gradient-23" x1="7144.97" y1="66.32" x2="7153.11" y2="82.89" gradientTransform="matrix(1, 0.02, -0.02, 1, -6761.92, -85.35)" gradientUnits="userSpaceOnUse"><stop offset="0" stop-color="#ff3862"/><stop offset="1" stop-color="#920155"/></linearGradient><linearGradient id="linear-gradient-24" x1="7140.51" y1="68.51" x2="7148.65" y2="85.08" xlink:href="#linear-gradient-23"/><linearGradient id="linear-gradient-25" x1="344.75" y1="122.72" x2="396.82" y2="234.8" gradientTransform="translate(-1.32 3.45) rotate(-0.87)" gradientUnits="userSpaceOnUse"><stop offset="0" stop-color="#920155"/><stop offset="1" stop-color="#ff3862"/></linearGradient><linearGradient id="linear-gradient-26" x1="-3423.47" y1="542.05" x2="-3405.5" y2="413.74" gradientTransform="matrix(-1, -0.08, -0.08, 1, -2976.16, -616.98)" xlink:href="#linear-gradient-11"/><linearGradient id="linear-gradient-27" x1="-3536.81" y1="832.42" x2="-3520.79" y2="718.04" gradientTransform="matrix(-1, 0.06, 0.06, 1, -3195.56, -416.86)" xlink:href="#linear-gradient-11"/><linearGradient id="linear-gradient-28" x1="7059.51" y1="2126.55" x2="7063.7" y2="2247.58" gradientTransform="translate(-6978.35 -249.7) rotate(-13.99)" xlink:href="#linear-gradient-13"/></defs><g id="_1-3" data-name="1-3"><rect class="cls-1" width="458" height="265"/><path class="cls-2" d="M68.75,31.54a4.95,4.95,0,1,1-5,5,5,5,0,0,1,5-5m0-2a6.95,6.95,0,1,0,7,7,6.95,6.95,0,0,0-7-7Z"/><path class="cls-2" d="M49.8,94.73a5,5,0,1,1-4.95,5,5,5,0,0,1,4.95-5m0-2a7,7,0,1,0,7,7,6.95,6.95,0,0,0-7-7Z"/><path class="cls-2" d="M135.71,25.22a4.95,4.95,0,1,1-5,5,5,5,0,0,1,5-5m0-2a7,7,0,1,0,6.95,7,6.95,6.95,0,0,0-6.95-7Z"/><path class="cls-2" d="M185,5A4.95,4.95,0,1,1,180,10,5,5,0,0,1,185,5m0-2a7,7,0,1,0,7,7A6.95,6.95,0,0,0,185,3Z"/><path class="cls-2" d="M118,78.3a5,5,0,1,1-5,5,5,5,0,0,1,5-5m0-2a7,7,0,1,0,7,7,6.95,6.95,0,0,0-7-7Z"/><path class="cls-2" d="M188.77,55.55a5,5,0,1,1-5,5,5,5,0,0,1,5-5m0-2a7,7,0,1,0,6.95,7,6.95,6.95,0,0,0-6.95-7Z"/><path class="cls-2" d="M246.89,40.38a5,5,0,1,1-4.95,5,5,5,0,0,1,4.95-5m0-2a7,7,0,1,0,6.94,7,7,7,0,0,0-6.94-7Z"/><path class="cls-2" d="M249.41,97.25a5,5,0,1,1-4.95,5,5,5,0,0,1,4.95-5m0-2a7,7,0,1,0,7,7,7,7,0,0,0-7-7Z"/><path class="cls-2" d="M286.05,142.75a4.95,4.95,0,1,1-4.95,4.95,5,5,0,0,1,4.95-4.95m0-2A6.95,6.95,0,1,0,293,147.7a6.95,6.95,0,0,0-6.95-6.95Z"/><path class="cls-2" d="M234.25,173.08A4.95,4.95,0,1,1,229.3,178a5,5,0,0,1,4.95-4.95m0-2A6.95,6.95,0,1,0,241.2,178a6.95,6.95,0,0,0-6.95-6.95Z"/><path class="cls-2" d="M178.66,163a5,5,0,1,1-4.95,4.95,5,5,0,0,1,4.95-4.95m0-2a7,7,0,1,0,7,6.95,7,7,0,0,0-7-6.95Z"/><path class="cls-2" d="M181.19,115a5,5,0,1,1-4.95,5,5,5,0,0,1,4.95-5m0-2a7,7,0,1,0,6.95,7,6.95,6.95,0,0,0-6.95-7Z"/><path class="cls-2" d="M92.75,127.58a5,5,0,1,1-5,5,5,5,0,0,1,5-5m0-2a7,7,0,1,0,7,7,6.95,6.95,0,0,0-7-7Z"/><path class="cls-2" d="M68.75,176.87a4.95,4.95,0,1,1-5,4.95,5,5,0,0,1,5-4.95m0-2a6.95,6.95,0,1,0,7,6.95,6.95,6.95,0,0,0-7-6.95Z"/><path class="cls-2" d="M17,142.75A4.95,4.95,0,1,1,12,147.7,5,5,0,0,1,17,142.75m0-2a6.95,6.95,0,1,0,7,6.95A6.95,6.95,0,0,0,17,140.75Z"/><path class="cls-2" d="M102.86,213.52a4.95,4.95,0,1,1-5,4.95,5,5,0,0,1,5-4.95m0-2a6.95,6.95,0,1,0,7,6.95,6.95,6.95,0,0,0-7-6.95Z"/><path class="cls-2" d="M172.35,221.1a5,5,0,1,1-4.95,5,5,5,0,0,1,4.95-5m0-2a7,7,0,1,0,6.94,7,6.95,6.95,0,0,0-6.94-7Z"/><path class="cls-2" d="M126.86,169.29a5,5,0,1,1-4.94,5,5,5,0,0,1,4.94-5m0-2a7,7,0,1,0,7,7,6.95,6.95,0,0,0-7-7Z"/><line class="cls-3" x1="74.43" y1="37.12" x2="130.02" y2="30.8"/><line class="cls-3" x1="66.85" y1="42.18" x2="51.69" y2="95.25"/><line class="cls-3" x1="73.17" y1="40.91" x2="113.6" y2="78.82"/><line class="cls-3" x1="20.11" y1="143.27" x2="46.64" y2="104.1"/><line class="cls-3" x1="21.37" y1="152.12" x2="64.33" y2="178.66"/><line class="cls-3" x1="50.43" y1="105.36" x2="66.85" y2="176.13"/><line class="cls-3" x1="54.22" y1="102.84" x2="89.59" y2="129.37"/><line class="cls-3" x1="90.86" y1="136.96" x2="71.91" y2="176.13"/><line class="cls-3" x1="55.48" y1="99.04" x2="112.33" y2="83.88"/><line class="cls-3" x1="133.81" y1="35.86" x2="119.92" y2="77.56"/><line class="cls-3" x1="141.39" y1="28.27" x2="179.29" y2="11.85"/><line class="cls-3" x1="190.67" y1="13.11" x2="241.2" y2="43.44"/><line class="cls-3" x1="185.61" y1="15.64" x2="188.14" y2="54.81"/><line class="cls-3" x1="140.13" y1="33.33" x2="184.35" y2="58.6"/><line class="cls-3" x1="123.71" y1="81.35" x2="183.08" y2="62.4"/><line class="cls-3" x1="114.86" y1="87.67" x2="95.91" y2="126.85"/><line class="cls-3" x1="71.91" y1="186.24" x2="98.44" y2="214.04"/><line class="cls-3" x1="124.97" y1="179.92" x2="106.02" y2="214.04"/><line class="cls-3" x1="74.43" y1="181.19" x2="121.18" y2="174.87"/><line class="cls-3" x1="97.17" y1="136.96" x2="122.44" y2="169.81"/><line class="cls-3" x1="98.44" y1="130.64" x2="175.5" y2="120.53"/><line class="cls-3" x1="122.44" y1="86.41" x2="176.77" y2="116.74"/><line class="cls-3" x1="186.87" y1="66.19" x2="181.82" y2="114.21"/><line class="cls-3" x1="176.77" y1="124.32" x2="131.29" y2="169.81"/><line class="cls-3" x1="131.29" y1="178.66" x2="169.19" y2="221.63"/><line class="cls-3" x1="108.54" y1="219.1" x2="166.66" y2="225.42"/><line class="cls-3" x1="132.55" y1="173.6" x2="172.98" y2="168.55"/><line class="cls-3" x1="178.03" y1="173.6" x2="172.98" y2="221.63"/><line class="cls-3" x1="181.82" y1="125.58" x2="179.29" y2="162.23"/><line class="cls-3" x1="184.35" y1="169.81" x2="228.57" y2="177.4"/><line class="cls-3" x1="176.77" y1="222.89" x2="229.83" y2="181.19"/><line class="cls-3" x1="281.63" y1="150.86" x2="239.94" y2="174.87"/><line class="cls-3" x1="252.57" y1="106.63" x2="281.63" y2="143.27"/><line class="cls-3" x1="248.78" y1="106.63" x2="234.88" y2="172.34"/><line class="cls-3" x1="186.87" y1="118" x2="243.73" y2="104.1"/><line class="cls-3" x1="193.19" y1="63.66" x2="243.73" y2="99.04"/><line class="cls-3" x1="246.25" y1="51.02" x2="248.78" y2="96.52"/><line class="cls-3" x1="194.46" y1="58.6" x2="241.2" y2="47.23"/><path class="cls-4" d="M130,70H342a0,0,0,0,1,0,0V182a12,12,0,0,1-12,12H142a12,12,0,0,1-12-12V70A0,0,0,0,1,130,70Z" transform="translate(472 264) rotate(180)"/><path class="cls-5" d="M142,194H330a12,12,0,0,1,12,12v9a0,0,0,0,1,0,0H130a0,0,0,0,1,0,0v-9a12,12,0,0,1,12-12Z" transform="translate(472 409) rotate(180)"/><rect class="cls-6" x="182.5" y="34.5" width="106" height="195" transform="translate(103.5 367.5) rotate(-90)"/><polygon class="cls-7" points="214 245 258 245 251.58 215 220.42 215 214 245"/><path class="cls-8" d="M193,253H281a4,4,0,0,0,0-8H193a4,4,0,0,0,0,8Z"/><rect class="cls-9" x="220" y="146" width="18" height="18"/><rect class="cls-10" x="204" y="117" width="18" height="18"/><path class="cls-11" d="M261.66,132.67l-.05,0a1.86,1.86,0,0,0,0,2.8,5.71,5.71,0,0,1,1.95,4.29,5.85,5.85,0,0,1-11.7,0,5.73,5.73,0,0,1,2-4.32,1.82,1.82,0,0,0,0-2.75l-.05,0A2.7,2.7,0,0,0,252,132H234.72v16.94a2.56,2.56,0,0,1-.63,1.76l-.06.06a1.89,1.89,0,0,1-2.8,0,5.74,5.74,0,0,0-4.38-1.77,5.66,5.66,0,0,0-5.85,5.54,5.87,5.87,0,0,0,10.21,3.88,1.92,1.92,0,0,1,2.83,0l0,0a2.51,2.51,0,0,1,.65,1.75V178h39.65c4.12,0,7.63-2.88,7.63-6.92V132H263.42A2.64,2.64,0,0,0,261.66,132.67Z"/><path class="cls-12" d="M234.33,158l0,0a1.92,1.92,0,0,0-2.82-.05,5.86,5.86,0,0,1-5.6,1.82,5.77,5.77,0,0,1-4.45-4.37c-.8-3.73,2.06-6.34,5.69-6.34a5.91,5.91,0,0,1,4.36,2c.73.83,2,.08,2.78-.74l.06-.06a2.6,2.6,0,0,0,.68-1.76v-17H218.12l0,.05a2.53,2.53,0,0,1-1.72-.66l-.07-.07a1.83,1.83,0,0,1,0-2.74,5.73,5.73,0,0,0-2.43-9.86,5.79,5.79,0,0,0-5.2,9.8,1.88,1.88,0,0,1,.05,2.81l0,0a2.62,2.62,0,0,1-1.74.68v-.05H188V171a7,7,0,0,0,7,7h40V159.7A2.54,2.54,0,0,0,234.33,158Z"/><path class="cls-13" d="M236,105.29l-.05-.05a2.52,2.52,0,0,1-.64-1.74V85H195.62A7.66,7.66,0,0,0,188,92.5V132h18.3a3.38,3.38,0,0,0,2-.69l0,0c.85-.76,1.46-2.07.61-2.83a5.81,5.81,0,0,1-2-4.33c0-3.22,2.11-5.85,5.33-5.82a5.81,5.81,0,0,1,3.83,10.18,1.85,1.85,0,0,0,0,2.78l.07.07A2.62,2.62,0,0,0,218,132h17.28V115a3,3,0,0,1,.65-1.91L236,113a1.89,1.89,0,0,1,2.8,0,5.82,5.82,0,1,0,0-7.73A1.89,1.89,0,0,1,236,105.29Z"/><path class="cls-14" d="M389.89,155c4.57,2.19,6.18,5.49,3.68,22a123.26,123.26,0,0,1-2.77,13.8c-1.32,6.83-1.25,7.89-1.29,11.21s.64,6.23.84,11c0,.05,0,.09,0,.14s0,.2,0,.3h0c0,.72,0,1.47,0,2.26-.23,6-3.46,19.82-4.16,23.76-.43,2.43-.65,4.86-.76,6.37h-4.92c.31-3.58,1.06-12.71,1.09-18.64,0-3.89-.53-9.65-.21-14.29h0c.22-5.73-.89-10.84-1.16-18.8h0c-.29-4.32-.19-10.62-.64-18.92C378.66,158,385.32,152.82,389.89,155Z"/><path class="cls-15" d="M355.4,239.45c.26-3.94.37-17.72,1.62-23.76.16-.79.34-1.54.54-2.26h0c0-.1.05-.2.08-.3a1,1,0,0,0,0-.14c1.35-4.74,2.76-7.76,3.51-11s1.09-4.38,1.43-11.21a114.91,114.91,0,0,1,.58-13.8c1.5-16.49,3.91-19.79,9-22s10.51,2.93,5.4,20.14c-2.47,8.3-3.9,14.6-5.24,18.92h0c-2.2,8-4.56,13.07-5.73,18.8h0c-.8,4.64-2.75,10.4-3.67,14.29-1.41,5.93-2.89,15.06-3.44,18.64h-4.92C354.88,244.31,355.24,241.88,355.4,239.45Z"/><path class="cls-16" d="M383.52,253c3.43,0,4.64-.3,4-2.94a21.25,21.25,0,0,0-2.07-4.24h-4.92s-.63,2.77-.85,4.57S380.14,253,383.52,253Z"/><path class="cls-17" d="M390.38,150.09s3.95,6.22,4.23,12.5-4.9,9.52-10.2,9.26-21.18.68-19.21-7.89a31.65,31.65,0,0,1,7.16-13.87Z"/><path class="cls-18" d="M354.8,253c-3.43,0-4.58-.3-3.28-2.94a29.61,29.61,0,0,1,3.1-4.24h4.92s0,2.77-.26,4.57S358.18,253,354.8,253Z"/><path class="cls-19" d="M372.64,120.61c-4.51.39-3.24,10.38-7.11,22.74-1.36,4.37-3.5,9.74-5.19,14.47s-3.31,8.64-3.81,9.79c-1,2.32.05,3.42,1.23,1.69a104.46,104.46,0,0,0,5.52-10.18c2.37-4.9,5.21-10.75,7.51-16.72C375.54,130.16,376.22,120.57,372.64,120.61Z"/><path class="cls-20" d="M373.11,133.2c.46.07.92.12,1.37.17,1.14-5.92,1.28-11.45-1-12.6a2.22,2.22,0,0,0-.86-.21h0c-3.3.1-4.46,4.26-5.87,10.67h0A19.23,19.23,0,0,0,373.11,133.2Z"/><path class="cls-21" d="M368.51,125.53c1.11-5.25,4.88-7.44,13.14-7.44s12,2.19,13.13,7.44c.54,2.57-1.8,8.14-3,13.41a70.69,70.69,0,0,0-1.6,11.15h-18A86.5,86.5,0,0,0,371,139.52C370.16,134.45,368,128.1,368.51,125.53Z"/><path class="cls-22" d="M393,154c-1.45-8,.38-18,.74-19.91.68-3.51,1.56-6.86,1.2-8.59-1.14-5.38-5-7.57-13.29-7.57s-12.16,2.19-13.29,7.57c-.36,1.68,2,11.05.07,18.18C361.08,170.17,361,202,361,202s5.42.57,15.22,1a83.79,83.79,0,0,0,17.36-1S397.2,177.09,393,154Z"/><path class="cls-23" d="M354.51,166.85c-.56.71-1.45,1.36-1.1,1.73.17.18.95-.39,1.69-.87a6.82,6.82,0,0,0-.88,1.49,2.91,2.91,0,0,1-1.47,1.53c-.24.22-1.34.7-1.09,1s4,.08,5.24-.91,2.78-4.88,2.78-4.88l-1.42-.83C357.35,164.46,355.07,166.14,354.51,166.85Z"/><path class="cls-24" d="M386.76,118.3a10.42,10.42,0,0,1-1.57-5.47c0-.32.08-4.31.32-4.27,0,0-3.2-.58-4.83,1.36l-.29.36-.27.35a19.81,19.81,0,0,0-1.41,2.61c-.07.18-.09.29-.1.29s.24-.07.45,0c1.35,2,.07,5.09,0,5.21-.09.84,1.08,2.49,3.8,1.8C384.14,120.25,387,118.42,386.76,118.3Z"/><path class="cls-25" d="M382.51,111c-1.27.2-2.19,2.1-4.37,2.76-1.82.55-2.75.2-3.26-1.57s-.64-9.5,2.92-11.27,7.52-1.49,9.17,1.18S388.26,110,382.51,111Z"/><path class="cls-26" d="M377.9,99.9a5.59,5.59,0,0,1,3.56-1.8,9.85,9.85,0,0,1,1.69-.09,5.91,5.91,0,0,1,2.9.54,5.13,5.13,0,0,1,1.17.74,7.61,7.61,0,0,1,2.61,4.24,11.2,11.2,0,0,1,.27,4.61,10.31,10.31,0,0,1-.36,1.48,8,8,0,0,1-4.46,4.54c-.13-2-2.89-1.67-3.36-2.81-.78-1.8.07-4.22-.6-6.56a13.92,13.92,0,0,0-.65-1.59,5,5,0,0,0-1.21-1.69Z"/><path class="cls-27" d="M378.39,99.42a4.29,4.29,0,0,0-3,2c-1.33,1.92.16,2.83.16,2.83.49.35,1.28.08,3.69,1.2a6.26,6.26,0,0,1,2.54,2.7s.89-3.33-.05-5.69A5.57,5.57,0,0,0,378.39,99.42Z"/><path class="cls-28" d="M395.8,185.83a10.32,10.32,0,0,0-6-3.53,3,3,0,0,1-2.6-3.12v-.06a2.59,2.59,0,0,1,1.23-1.89l19.6-11.9-36.39-43.64c-3.76-4.51-10.32-6-14.66-3.4L315,143.76l17,20.38a4.69,4.69,0,0,0,2.36,1.5l.06,0c1.57.44,3-.4,3-1.82a5.76,5.76,0,0,1,2.81-4.93c3.4-2.06,8.63-.83,11.56,2.72s2.53,8.06-.86,10.11a8.1,8.1,0,0,1-6.43.64c-1.55-.45-2.93.41-2.94,1.8v.08a3.55,3.55,0,0,0,.89,2.4l15.76,18.9,18.17-11a3.51,3.51,0,0,1,2.46-.38l.15,0a3,3,0,0,1,2.56,3.06,7.8,7.8,0,0,0,1.93,6.08c2.94,3.52,8.06,4.72,11.47,2.69S398.75,189.37,395.8,185.83Z"/><path class="cls-29" d="M391.63,120.36c-4.36,1.18-.95,10.49-4,22.85a116.63,116.63,0,0,1-4.89,14.1,88.85,88.85,0,0,1-4.32,9.19c-1.19,2.13-.27,3.32,1.08,1.77a62.17,62.17,0,0,0,6.13-9.57A95.09,95.09,0,0,0,392.79,142C396.65,129.27,395.09,119.52,391.63,120.36Z"/><path class="cls-30" d="M375.58,168.05c-.5.71-1.34,1.36-1,1.7.18.17.91-.4,1.62-.89a6.48,6.48,0,0,0-.78,1.47,2.64,2.64,0,0,1-1.38,1.5c-.23.22-1.29.69-1,1s4,.05,5.16-1,2.45-4.91,2.44-4.92l-1.48-.72C378.2,165.62,376.08,167.36,375.58,168.05Z"/><path class="cls-31" d="M388,132.52a40.73,40.73,0,0,0,7.81-.69v-.16c-.1-6.56-.4-10.87-3.61-11.63h0a2,2,0,0,0-.89,0c-2.46.67-3.43,6.29-3.48,12.44Z"/></g></svg>